<svg viewBox="-26.618918918918936 36.242500000000064 462.0283783783784 492.95249999999993" fill="none" xmlns="http://www.w3.org/2000/svg" xmlns:xlink="http://www.w3.org/1999/xlink" overflow="visible" width="427.80405405405406px" height="456.43749999999994px"><rect id="Blush Background Color" fill="#d8dee9" x="-26.618918918918936" y="36.242500000000064" width="462.0283783783784" height="492.95249999999993"/><g id="Master/Composition/Space"><circle id="Oval" cx="42" cy="371" r="42" fill="#bfc2c6"/><ellipse id="Oval_2" cx="201" cy="275.5" rx="170" ry="169.5" fill="#b3d7e1"/><path id="Polygon" fill-rule="evenodd" clip-rule="evenodd" d="M71 124L104 157L71 190L38 157L71 124Z" fill="#9096a3"/><g id="Character And Mask"><ellipse id="Mask" opacity="0.278134" cx="201" cy="251.5" rx="170" ry="193.5" fill="#3e4656"/><mask id="mask0_215_559476b09e3a-fedc-4059-96b2-fc069392e181" style="mask-type:alpha" maskUnits="userSpaceOnUse" x="-88" y="44" width="515" height="462" fill="#ffffff"><ellipse id="Mask_2" cx="169.405" cy="275.075" rx="256.983" ry="230.696" fill="#ffffff"/></mask><g mask="url(#mask0_215_559476b09e3a-fedc-4059-96b2-fc069392e181)"><g id="Head/Front" transform="rotate(-27 34.6362 124.278) translate(34.6362 124.278) scale(1.5147058823529411 1.4423076923076923)"><g id="Head/Front/Bun and Mullet"><g id="Head"><path id="SKIN" fill-rule="evenodd" clip-rule="evenodd" d="M73.9354 75.2443C80.411 79.1475 86.7736 81.0333 89.7603 80.2635C97.2496 78.333 97.9382 50.9351 92.1433 40.1339C86.3485 29.3328 56.5583 24.625 55.0568 46.0255C54.5356 53.4529 57.6544 60.0814 62.2623 65.4901L54 104H78L73.9354 75.2443Z" fill="#b5b8bb"/></g><path id="hair" fill-rule="evenodd" clip-rule="evenodd" d="M82.6635 28.37C66 22.1431 52.932 34.1745 51.199 36.1553C49.3622 38.2548 48.1395 40.8784 47.2353 43.5467C46.2532 46.445 45.6454 49.4566 45.4209 52.5251C45.2077 55.4405 45.188 58.5235 45.8715 61.3767C46.5108 64.0448 47.8781 66.2337 50.1607 67.6223C51.2063 68.2584 52.3313 68.7363 53.4627 69.173C54.5778 69.6034 55.6963 70.0219 56.8643 70.2634C59.075 70.7203 61.6221 70.6418 63.325 68.8823C63.9387 68.2479 64.6137 67.4508 65.0614 66.6759C65.2224 66.3972 65.3195 66.215 65.1239 65.9426C64.8896 65.6164 64.5106 65.3664 64.2096 65.1112C62.493 63.6561 61.4304 61.7135 61.1626 59.4049C60.8908 57.0626 61.52 54.0393 63.7973 53.017C66.6084 51.7552 69.7043 53.2036 72.2028 54.5537C73.2647 50.806 75.445 47.4315 78.8634 45.7124C82.6452 43.8105 86.9848 43.5879 90.8712 41.9561C91.8839 41.5309 92.9154 41.0482 93.661 40.1818C93.9726 39.8197 94.3381 39.35 94.4625 38.871C94.626 38.242 94.2202 37.7145 93.9068 37.2241C92.245 34.6236 89.0105 30.7417 82.6635 28.37Z" fill="#313744"/><circle id="Oval" cx="55" cy="25" r="15" fill="#313744"/><path id="Path 5" fill-rule="evenodd" clip-rule="evenodd" d="M51.9333 66.1299C51.9333 66.1299 43.8321 85.2939 37.0032 91.6154C40 97.966 55.9055 97.2018 55.9055 97.2018L61.9025 69.141L51.9333 66.1299Z" fill="#313744"/></g></g><g id="Character Lower Body"><path id="SKIN" fill-rule="evenodd" clip-rule="evenodd" d="M206.353 326.343L280.302 506.186L329.901 658.228H349.486L270.648 326.343L206.353 326.343Z" fill="#b5b8bb"/><path id="SKIN" fill-rule="evenodd" clip-rule="evenodd" d="M191.462 326.343C190.674 389.541 179.19 474.627 177.355 478.566C175.521 482.506 50.6775 578.76 50.6775 578.76L64.167 592.631C64.167 592.631 211.47 510.105 218.287 499.098C225.103 488.091 247.295 386.803 265.113 326.343H191.462Z" fill="#b5b8bb"/><path id="Pant" fill-rule="evenodd" clip-rule="evenodd" d="M256.073 642.568L349.191 632.857L274.153 326.343H196.776L256.073 642.568Z" fill="#6c8e8e"/><path id="Pant" fill-rule="evenodd" clip-rule="evenodd" d="M69.939 556.383L131.019 625.851C131.019 625.851 227.521 524.579 243.541 493.691C259.561 462.803 272.343 326.343 272.343 326.343H178.446C178.446 326.343 171.464 446.394 169.033 451.981C166.602 457.568 69.939 556.383 69.939 556.383Z" fill="#8ec3d2"/></g><g id="Upper Body" transform="rotate(-14 -3.60303 230.938) translate(-3.60303 230.938) scale(1.50390625 1.4491978609625669)"><g id="Upper Body/Trench Coat"><path id="SKIN" fill-rule="evenodd" clip-rule="evenodd" d="M24.0271 138.201C27.9454 132.855 51.5391 75.3752 51.5391 75.3752L69.1504 78.564C69.1504 78.564 38.4903 139.405 36.3073 142.902C33.4714 147.445 35.5707 155.142 36.9942 160.361C37.2144 161.169 37.4184 161.917 37.5855 162.585C34.1826 163.44 32.9683 161.467 31.6882 159.387C30.2422 157.037 28.7122 154.551 23.8497 155.85C21.9711 156.351 20.1598 157.017 18.3901 157.667C12.2774 159.912 6.66196 161.974 0.486925 156.477C-0.492045 155.606 -1.24581 152.841 2.01427 151.36C10.1363 147.669 22.1115 140.815 24.0271 138.201ZM227.788 108.555L195.89 85.1316L188.838 102.563L220.426 115.661C229.359 126.155 234.355 130.53 235.412 128.785C236.304 127.314 235.607 125.937 234.965 124.669C234.465 123.681 233.998 122.758 234.342 121.909C235.126 119.97 241.127 120.174 246.814 120.611C252.5 121.048 250.843 118.518 249.472 117.269C243.667 113.794 236.439 110.89 227.788 108.555Z" fill="#b5b8bb"/><path id="Back Arm" fill-rule="evenodd" clip-rule="evenodd" d="M138.264 2.0415L127.569 6.42763C127.681 9.22099 127.67 13.1947 127.658 17.7472C127.618 32.036 127.562 52.0268 131.254 59.1216C144.043 83.7012 170.303 96.5048 199.551 110.765C203.471 112.676 207.445 114.614 211.448 116.61L219.495 100.182C218.563 99.521 217.639 98.8566 216.723 98.1885C217.987 97.7455 219.042 96.7451 219.503 95.3772C220.296 93.022 219.03 90.4694 216.675 89.6759C211.889 88.0632 207.424 87.3833 203.32 87.678C173.349 62.4233 153.173 32.8583 138.264 2.0415Z" fill="#cbced2"/><path id="Shirt" fill-rule="evenodd" clip-rule="evenodd" d="M90 113.91C90 113.91 137.157 119.09 164.236 113.91C166.473 113.482 166.375 103.84 165.337 101.207C149.185 60.2019 138.56 30.184 138.56 1.70264C134.115 4.02478 123 2.39864 123 2.39864C103.086 31.7496 93.9325 65.4265 90 113.91Z" fill="#1b1e25"/><path id="Coat Front" fill-rule="evenodd" clip-rule="evenodd" d="M30.1925 114.406C57.9812 34.9799 114.976 0 114.976 0H116.532H120.377H126.348C125.06 17.0357 131.113 41.826 138.134 70.5842C149.364 116.577 163.071 172.719 153.191 223.518C141.042 226.231 126.766 224.379 111.312 222.374C89.0082 219.479 64.2489 216.267 39.8828 226C40.8222 205.65 52.7036 183.124 64.5315 160.699C72.0289 146.484 79.5048 132.31 84.1585 118.758C83.0909 117.753 82.5343 116.247 82.8078 114.696L83.3288 111.741C83.6818 109.739 85.3078 108.281 87.2277 108.053C87.5633 106.553 87.8527 105.063 88.0917 103.583C89.3128 96.0246 88.5333 88.5548 87.7625 81.169L87.7624 81.1688C87.3392 77.1137 86.9187 73.084 86.8334 69.0787C73.4403 81.0101 57.228 101.813 43.5479 137.871L24.6611 132.313C25.3833 129.63 26.1401 126.991 26.9288 124.396C24.7427 123.191 22.1654 117.47 24.0066 116.516C25.952 115.508 28.0161 114.807 30.1925 114.406Z" fill="#f0f2f6"/><path id="Shade Lapel" fill-rule="evenodd" clip-rule="evenodd" d="M119.106 1L113.947 16.8654L124.336 28.759L114.947 38.1055L137.662 77L109.884 38.1832L119.106 28.759L109.884 18.2485L119.106 1Z" fill="#000000" fill-opacity="0.1"/><path id="Buttons" fill-rule="evenodd" clip-rule="evenodd" d="M135 88C135 90.2091 133.209 92 131 92C128.791 92 127 90.2091 127 88C127 85.7909 128.791 84 131 84C133.209 84 135 85.7909 135 88ZM140 111C140 113.209 138.209 115 136 115C133.791 115 132 113.209 132 111C132 108.791 133.791 107 136 107C138.209 107 140 108.791 140 111ZM137 138C139.209 138 141 136.209 141 134C141 131.791 139.209 130 137 130C134.791 130 133 131.791 133 134C133 136.209 134.791 138 137 138Z" fill="#000000" fill-opacity="0.4"/></g></g></g></g><circle id="Oval_3" cx="291" cy="442" r="42" fill="#e9ecf1"/><path id="Polygon_2" opacity="0.399135" fill-rule="evenodd" clip-rule="evenodd" d="M294 82L302 90L294 98L286 90L294 82Z" fill="#343b48"/></g></svg>